<svg xmlns="http://www.w3.org/2000/svg" width="100%" height="100%" viewBox="0 0 836 365" fill="none" style="max-width: 100%; max-height: 100%; pointer-events: auto;"><defs><style>
        @keyframes rainbow-live {
          0% { fill: #ff0000; }
          17% { fill: #ff00ff; }
          33% { fill: #0000ff; }
          50% { fill: #00ffff; }
          66% { fill: #00ff00; }
          83% { fill: #ffff00; }
          100% { fill: #ff0000; }
        }
        .rainbow-active {
          animation: rainbow-live 6s linear infinite !important;
        }
      </style></defs>
<path d="M8.192 258V248.528C8.192 243.749 8.53333 238.971 9.216 234.192C9.89867 229.413 10.7093 224.677 11.648 219.984C12.5867 215.205 13.6107 210.469 14.72 205.776C15.8293 201.083 16.9813 196.432 18.176 191.824C19.456 187.131 20.7787 182.48 22.144 177.872C23.5093 173.179 24.8747 168.528 26.24 163.92H37.76C39.1253 168.528 40.4907 173.179 41.856 177.872C43.2213 182.48 44.5013 187.131 45.696 191.824C46.976 196.432 48.1707 201.083 49.28 205.776C50.3893 210.469 51.4133 215.205 52.352 219.984C53.2907 224.677 54.1013 229.413 54.784 234.192C55.4667 238.971 55.808 243.749 55.808 248.528V258H45.824V248.528C45.824 246.053 45.7387 243.579 45.568 241.104C45.3973 238.629 45.1413 236.155 44.8 233.68H19.2C18.8587 236.155 18.6027 238.629 18.432 241.104C18.2613 243.579 18.176 246.053 18.176 248.528V258H8.192ZM20.48 224.72H43.52C42.1547 216.016 40.448 207.355 38.4 198.736C36.352 190.117 34.2187 181.541 32 173.008C29.7813 181.541 27.648 190.117 25.6 198.736C23.552 207.355 21.8453 216.016 20.48 224.72ZM72.192 285.52V191.44H82.176V203.728C82.8587 201.765 83.7547 199.931 84.864 198.224C86.0587 196.517 87.4667 195.067 89.088 193.872C90.7093 192.677 92.5013 191.824 94.464 191.312C96.4267 190.715 98.432 190.416 100.48 190.416C102.613 190.416 104.704 190.715 106.752 191.312C108.8 191.909 110.635 192.891 112.256 194.256C113.963 195.536 115.371 197.072 116.48 198.864C117.589 200.656 118.485 202.576 119.168 204.624C119.851 206.587 120.277 208.635 120.448 210.768C120.704 212.816 120.832 214.907 120.832 217.04V232.4C120.832 234.533 120.704 236.667 120.448 238.8C120.277 240.848 119.851 242.896 119.168 244.944C118.485 246.907 117.589 248.784 116.48 250.576C115.371 252.368 113.963 253.947 112.256 255.312C110.635 256.592 108.8 257.531 106.752 258.128C104.704 258.725 102.613 259.024 100.48 259.024C98.432 259.024 96.4267 258.725 94.464 258.128C92.5013 257.616 90.7093 256.763 89.088 255.568C87.4667 254.373 86.0587 252.923 84.864 251.216C83.7547 249.509 82.8587 247.675 82.176 245.712V285.52H72.192ZM96.512 250.064C97.9627 250.064 99.3707 249.893 100.736 249.552C102.187 249.211 103.467 248.613 104.576 247.76C105.771 246.907 106.795 245.883 107.648 244.688C108.501 243.493 109.141 242.213 109.568 240.848C110.08 239.483 110.421 238.117 110.592 236.752C110.763 235.301 110.848 233.851 110.848 232.4V217.04C110.848 215.589 110.763 214.181 110.592 212.816C110.421 211.365 110.08 209.957 109.568 208.592C109.141 207.227 108.501 205.947 107.648 204.752C106.795 203.557 105.771 202.533 104.576 201.68C103.467 200.827 102.187 200.229 100.736 199.888C99.3707 199.547 97.9627 199.376 96.512 199.376C95.0613 199.376 93.6107 199.547 92.16 199.888C90.7947 200.229 89.5147 200.827 88.32 201.68C87.2107 202.533 86.2293 203.557 85.376 204.752C84.5227 205.947 83.84 207.227 83.328 208.592C82.9013 209.957 82.6027 211.365 82.432 212.816C82.2613 214.181 82.176 215.589 82.176 217.04V232.4C82.176 233.851 82.2613 235.301 82.432 236.752C82.6027 238.117 82.9013 239.483 83.328 240.848C83.84 242.213 84.5227 243.493 85.376 244.688C86.2293 245.883 87.2107 246.907 88.32 247.76C89.5147 248.613 90.7947 249.211 92.16 249.552C93.6107 249.893 95.0613 250.064 96.512 250.064ZM136.192 285.52V191.44H146.176V203.728C146.859 201.765 147.755 199.931 148.864 198.224C150.059 196.517 151.467 195.067 153.088 193.872C154.709 192.677 156.501 191.824 158.464 191.312C160.427 190.715 162.432 190.416 164.48 190.416C166.613 190.416 168.704 190.715 170.752 191.312C172.8 191.909 174.635 192.891 176.256 194.256C177.963 195.536 179.371 197.072 180.48 198.864C181.589 200.656 182.485 202.576 183.168 204.624C183.851 206.587 184.277 208.635 184.448 210.768C184.704 212.816 184.832 214.907 184.832 217.04V232.4C184.832 234.533 184.704 236.667 184.448 238.8C184.277 240.848 183.851 242.896 183.168 244.944C182.485 246.907 181.589 248.784 180.48 250.576C179.371 252.368 177.963 253.947 176.256 255.312C174.635 256.592 172.8 257.531 170.752 258.128C168.704 258.725 166.613 259.024 164.48 259.024C162.432 259.024 160.427 258.725 158.464 258.128C156.501 257.616 154.709 256.763 153.088 255.568C151.467 254.373 150.059 252.923 148.864 251.216C147.755 249.509 146.859 247.675 146.176 245.712V285.52H136.192ZM160.512 250.064C161.963 250.064 163.371 249.893 164.736 249.552C166.187 249.211 167.467 248.613 168.576 247.76C169.771 246.907 170.795 245.883 171.648 244.688C172.501 243.493 173.141 242.213 173.568 240.848C174.08 239.483 174.421 238.117 174.592 236.752C174.763 235.301 174.848 233.851 174.848 232.4V217.04C174.848 215.589 174.763 214.181 174.592 212.816C174.421 211.365 174.08 209.957 173.568 208.592C173.141 207.227 172.501 205.947 171.648 204.752C170.795 203.557 169.771 202.533 168.576 201.68C167.467 200.827 166.187 200.229 164.736 199.888C163.371 199.547 161.963 199.376 160.512 199.376C159.061 199.376 157.611 199.547 156.16 199.888C154.795 200.229 153.515 200.827 152.32 201.68C151.211 202.533 150.229 203.557 149.376 204.752C148.523 205.947 147.84 207.227 147.328 208.592C146.901 209.957 146.603 211.365 146.432 212.816C146.261 214.181 146.176 215.589 146.176 217.04V232.4C146.176 233.851 146.261 235.301 146.432 236.752C146.603 238.117 146.901 239.483 147.328 240.848C147.84 242.213 148.523 243.493 149.376 244.688C150.229 245.883 151.211 246.907 152.32 247.76C153.515 248.613 154.795 249.211 156.16 249.552C157.611 249.893 159.061 250.064 160.512 250.064ZM244.352 258H237.44C235.563 258 233.643 257.829 231.68 257.488C229.803 257.147 227.968 256.549 226.176 255.696C224.469 254.843 222.891 253.733 221.44 252.368C220.075 251.003 218.965 249.467 218.112 247.76C217.259 245.968 216.661 244.133 216.32 242.256C216.064 240.293 215.936 238.331 215.936 236.368V172.88H198.528V163.92H225.792V236.368C225.792 237.989 226.005 239.611 226.432 241.232C226.859 242.853 227.584 244.304 228.608 245.584C229.717 246.779 231.04 247.675 232.576 248.272C234.197 248.784 235.819 249.04 237.44 249.04H244.352V258ZM288 259.024C285.696 259.024 283.392 258.768 281.088 258.256C278.869 257.829 276.736 257.061 274.688 255.952C272.725 254.843 270.933 253.435 269.312 251.728C267.776 249.936 266.539 248.016 265.6 245.968C264.661 243.835 264.021 241.616 263.68 239.312C263.339 237.008 263.168 234.704 263.168 232.4V217.04C263.168 214.736 263.339 212.432 263.68 210.128C264.021 207.824 264.661 205.648 265.6 203.6C266.624 201.467 267.904 199.547 269.44 197.84C270.976 196.048 272.725 194.597 274.688 193.488C276.736 192.293 278.912 191.483 281.216 191.056C283.52 190.629 285.824 190.416 288.128 190.416C290.091 190.416 292.096 190.544 294.144 190.8C296.192 191.056 298.155 191.568 300.032 192.336C301.909 193.019 303.659 193.957 305.28 195.152C306.987 196.347 308.395 197.797 309.504 199.504C310.699 201.125 311.552 202.96 312.064 205.008C312.576 206.971 312.832 208.976 312.832 211.024C312.832 213.072 312.576 215.077 312.064 217.04C311.552 219.003 310.656 220.795 309.376 222.416C308.181 224.037 306.688 225.403 304.896 226.512C303.189 227.621 301.355 228.517 299.392 229.2C297.515 229.883 295.552 230.352 293.504 230.608C291.541 230.779 289.536 230.864 287.488 230.864H273.152V232.4C273.152 233.851 273.237 235.301 273.408 236.752C273.579 238.203 273.92 239.611 274.432 240.976C274.944 242.341 275.627 243.621 276.48 244.816C277.419 246.011 278.485 247.035 279.68 247.888C280.875 248.656 282.197 249.211 283.648 249.552C285.099 249.893 286.549 250.064 288 250.064C289.707 250.064 291.371 249.936 292.992 249.68C294.699 249.339 296.277 248.741 297.728 247.888C299.179 246.949 300.331 245.755 301.184 244.304C302.123 242.768 302.592 241.147 302.592 239.44H312.576C312.576 241.403 312.235 243.323 311.552 245.2C310.955 247.077 310.059 248.827 308.864 250.448C307.755 251.984 306.389 253.349 304.768 254.544C303.147 255.653 301.397 256.549 299.52 257.232C297.728 257.915 295.851 258.384 293.888 258.64C291.925 258.896 289.963 259.024 288 259.024ZM273.152 221.904H287.488C288.683 221.904 289.877 221.861 291.072 221.776C292.267 221.605 293.419 221.392 294.528 221.136C295.637 220.795 296.704 220.325 297.728 219.728C298.837 219.131 299.776 218.405 300.544 217.552C301.397 216.613 301.995 215.589 302.336 214.48C302.677 213.285 302.848 212.091 302.848 210.896C302.848 209.189 302.421 207.525 301.568 205.904C300.8 204.197 299.691 202.875 298.24 201.936C296.789 200.912 295.168 200.229 293.376 199.888C291.584 199.547 289.835 199.376 288.128 199.376C286.677 199.376 285.227 199.547 283.776 199.888C282.325 200.229 280.96 200.827 279.68 201.68C278.485 202.448 277.419 203.429 276.48 204.624C275.627 205.819 274.944 207.099 274.432 208.464C273.92 209.829 273.579 211.237 273.408 212.688C273.237 214.139 273.152 215.589 273.152 217.04V221.904ZM518.528 258V163.92H530.816L544 214.352L557.184 163.92H569.472V258H559.872V239.184C559.872 229.371 560 219.6 560.256 209.872C560.597 200.059 560.811 190.245 560.896 180.432L547.968 229.712H540.032L527.104 180.432C527.189 190.245 527.36 200.059 527.616 209.872C527.957 219.6 528.128 229.371 528.128 239.184V258H518.528ZM604.032 259.024C601.899 259.024 599.808 258.725 597.76 258.128C595.797 257.531 594.005 256.549 592.384 255.184C590.763 253.819 589.397 252.24 588.288 250.448C587.264 248.656 586.411 246.779 585.728 244.816C585.131 242.768 584.704 240.72 584.448 238.672C584.277 236.539 584.192 234.448 584.192 232.4V191.44H594.176V232.4C594.176 233.851 594.261 235.301 594.432 236.752C594.603 238.117 594.901 239.483 595.328 240.848C595.755 242.128 596.352 243.365 597.12 244.56C597.973 245.755 598.955 246.779 600.064 247.632C601.173 248.485 602.411 249.125 603.776 249.552C605.141 249.893 606.549 250.064 608 250.064C609.451 250.064 610.859 249.893 612.224 249.552C613.589 249.125 614.827 248.485 615.936 247.632C617.045 246.779 617.984 245.755 618.752 244.56C619.605 243.365 620.245 242.128 620.672 240.848C621.099 239.483 621.397 238.117 621.568 236.752C621.739 235.301 621.824 233.851 621.824 232.4V191.44H631.808V246.864C631.808 247.291 631.851 247.717 631.936 248.144C632.107 248.571 632.32 248.955 632.576 249.296C632.917 249.552 633.301 249.765 633.728 249.936C634.155 250.021 634.581 250.064 635.008 250.064H637.696V259.024H635.008C633.301 259.024 631.595 258.811 629.888 258.384C628.267 257.957 626.816 257.189 625.536 256.08C624.256 254.885 623.317 253.477 622.72 251.856C622.123 250.235 621.824 248.571 621.824 246.864V245.84C621.141 247.717 620.245 249.509 619.136 251.216C618.112 252.923 616.789 254.373 615.168 255.568C613.632 256.763 611.883 257.616 609.92 258.128C607.957 258.725 605.995 259.024 604.032 259.024ZM671.872 259.024C669.995 259.024 668.117 258.896 666.24 258.64C664.448 258.469 662.656 258.128 660.864 257.616C659.072 257.019 657.365 256.251 655.744 255.312C654.208 254.288 652.843 253.093 651.648 251.728C650.453 250.277 649.515 248.656 648.832 246.864C648.235 245.072 647.936 243.237 647.936 241.36V240.72H657.92V241.104C657.92 242.64 658.389 244.048 659.328 245.328C660.267 246.608 661.419 247.632 662.784 248.4C664.235 249.083 665.728 249.552 667.264 249.808C668.8 249.979 670.336 250.064 671.872 250.064C673.408 250.064 674.944 249.936 676.48 249.68C678.101 249.424 679.595 248.955 680.96 248.272C682.325 247.589 683.477 246.608 684.416 245.328C685.44 243.963 685.952 242.512 685.952 240.976C685.952 239.44 685.525 238.075 684.672 236.88C683.819 235.6 682.752 234.576 681.472 233.808C680.277 232.955 678.997 232.272 677.632 231.76C676.267 231.248 674.859 230.779 673.408 230.352C672.043 229.925 670.635 229.499 669.184 229.072C667.819 228.56 666.453 228.048 665.088 227.536C663.723 226.939 662.4 226.299 661.12 225.616C659.84 224.933 658.603 224.165 657.408 223.312C656.213 222.373 655.104 221.392 654.08 220.368C653.056 219.259 652.16 218.107 651.392 216.912C650.709 215.632 650.155 214.267 649.728 212.816C649.387 211.365 649.216 209.915 649.216 208.464C649.216 206.672 649.472 204.88 649.984 203.088C650.581 201.296 651.435 199.675 652.544 198.224C653.653 196.773 654.976 195.536 656.512 194.512C658.048 193.488 659.669 192.677 661.376 192.08C663.083 191.397 664.832 190.971 666.624 190.8C668.501 190.544 670.336 190.416 672.128 190.416C673.92 190.416 675.712 190.544 677.504 190.8C679.296 190.971 681.045 191.355 682.752 191.952C684.459 192.549 686.08 193.36 687.616 194.384C689.152 195.323 690.475 196.517 691.584 197.968C692.693 199.333 693.547 200.912 694.144 202.704C694.741 204.411 695.04 206.16 695.04 207.952V208.72H685.056V208.336C685.056 206.885 684.629 205.52 683.776 204.24C683.008 202.96 681.984 201.979 680.704 201.296C679.424 200.528 678.016 200.016 676.48 199.76C675.029 199.504 673.579 199.376 672.128 199.376C670.677 199.376 669.184 199.504 667.648 199.76C666.197 200.016 664.832 200.528 663.552 201.296C662.272 201.979 661.205 203.003 660.352 204.368C659.499 205.648 659.072 207.013 659.072 208.464C659.072 209.915 659.499 211.28 660.352 212.56C661.205 213.84 662.229 214.907 663.424 215.76C664.619 216.528 665.899 217.168 667.264 217.68C668.715 218.192 670.123 218.661 671.488 219.088C672.939 219.515 674.347 219.984 675.712 220.496C677.077 220.923 678.443 221.435 679.808 222.032C681.173 222.544 682.496 223.141 683.776 223.824C685.141 224.507 686.379 225.275 687.488 226.128C688.683 226.981 689.792 227.963 690.816 229.072C691.84 230.096 692.736 231.248 693.504 232.528C694.272 233.808 694.827 235.173 695.168 236.624C695.595 237.989 695.808 239.44 695.808 240.976C695.808 242.853 695.467 244.688 694.784 246.48C694.187 248.272 693.291 249.893 692.096 251.344C690.987 252.795 689.621 254.032 688 255.056C686.379 256.08 684.672 256.891 682.88 257.488C681.173 258.085 679.381 258.469 677.504 258.64C675.627 258.896 673.749 259.024 671.872 259.024ZM759.552 258H752.64C750.677 258 748.715 257.829 746.752 257.488C744.875 257.147 743.04 256.549 741.248 255.696C739.541 254.843 738.005 253.733 736.64 252.368C735.275 251.003 734.165 249.467 733.312 247.76C732.459 245.968 731.861 244.133 731.52 242.256C731.179 240.293 731.008 238.331 731.008 236.368V200.4H713.6V191.44H740.992V236.368C740.992 237.989 741.205 239.611 741.632 241.232C742.059 242.853 742.784 244.304 743.808 245.584C744.917 246.779 746.24 247.675 747.776 248.272C749.397 248.784 751.019 249.04 752.64 249.04H759.552V258ZM736 180.176C734.891 180.176 733.824 180.048 732.8 179.792C731.776 179.451 730.88 178.896 730.112 178.128C729.344 177.36 728.789 176.464 728.448 175.44C728.192 174.416 728.064 173.349 728.064 172.24C728.064 171.131 728.192 170.064 728.448 169.04C728.789 168.016 729.344 167.12 730.112 166.352C730.88 165.584 731.776 165.029 732.8 164.688C733.824 164.347 734.891 164.176 736 164.176C737.109 164.176 738.176 164.347 739.2 164.688C740.224 165.029 741.12 165.584 741.888 166.352C742.656 167.12 743.211 168.016 743.552 169.04C743.893 170.064 744.064 171.131 744.064 172.24C744.064 173.349 743.893 174.416 743.552 175.44C743.211 176.464 742.656 177.36 741.888 178.128C741.12 178.896 740.224 179.451 739.2 179.792C738.176 180.048 737.109 180.176 736 180.176ZM799.616 259.024C797.312 259.024 795.008 258.768 792.704 258.256C790.485 257.829 788.395 257.061 786.432 255.952C784.469 254.757 782.72 253.307 781.184 251.6C779.733 249.808 778.539 247.888 777.6 245.84C776.661 243.707 776.021 241.531 775.68 239.312C775.339 237.008 775.168 234.704 775.168 232.4V217.04C775.168 214.736 775.339 212.475 775.68 210.256C776.021 207.952 776.661 205.776 777.6 203.728C778.539 201.595 779.733 199.675 781.184 197.968C782.72 196.176 784.469 194.725 786.432 193.616C788.395 192.421 790.485 191.611 792.704 191.184C795.008 190.672 797.312 190.416 799.616 190.416C801.749 190.416 803.883 190.587 806.016 190.928C808.149 191.269 810.155 191.909 812.032 192.848C813.909 193.787 815.616 195.024 817.152 196.56C818.773 198.011 820.096 199.675 821.12 201.552C822.144 203.429 822.869 205.435 823.296 207.568C823.808 209.616 824.064 211.707 824.064 213.84V214.48H814.08V214.096C814.08 212.133 813.781 210.213 813.184 208.336C812.587 206.459 811.605 204.837 810.24 203.472C808.875 202.021 807.253 200.997 805.376 200.4C803.499 199.717 801.579 199.376 799.616 199.376C798.165 199.376 796.715 199.547 795.264 199.888C793.899 200.229 792.619 200.827 791.424 201.68C790.229 202.533 789.205 203.557 788.352 204.752C787.584 205.947 786.944 207.227 786.432 208.592C785.92 209.872 785.579 211.237 785.408 212.688C785.237 214.139 785.152 215.589 785.152 217.04V232.4C785.152 233.851 785.237 235.301 785.408 236.752C785.579 238.203 785.92 239.611 786.432 240.976C786.944 242.256 787.584 243.493 788.352 244.688C789.205 245.883 790.229 246.907 791.424 247.76C792.619 248.613 793.899 249.211 795.264 249.552C796.715 249.893 798.165 250.064 799.616 250.064C801.579 250.064 803.499 249.765 805.376 249.168C807.253 248.485 808.875 247.461 810.24 246.096C811.605 244.645 812.587 242.981 813.184 241.104C813.781 239.227 814.08 237.307 814.08 235.344V234.96H824.064V235.6C824.064 237.733 823.808 239.867 823.296 242C822.869 244.048 822.144 246.011 821.12 247.888C820.096 249.765 818.773 251.472 817.152 253.008C815.616 254.459 813.909 255.653 812.032 256.592C810.155 257.531 808.149 258.171 806.016 258.512C803.883 258.853 801.749 259.024 799.616 259.024Z" fill="#ffffff" class="rainbow-active" id="path-1" data-rainbow="true"/>
<path d="M493.662 229.476C490.458 239.771 485.406 250.066 478.506 260.36C467.909 276.503 457.353 284.574 446.838 284.574C442.813 284.574 437.063 283.256 429.587 280.621C422.523 277.985 416.321 276.667 410.981 276.667C405.97 276.667 400.138 278.026 393.484 280.744C386.83 283.544 381.409 284.944 377.219 284.944C364.733 284.944 352.37 274.279 340.13 252.948C328.054 231.452 322.017 210.739 322.017 190.809C322.017 172.031 326.658 156.63 335.941 144.605C345.141 132.746 356.806 126.816 370.935 126.816C376.849 126.816 384.119 128.051 392.745 130.522C401.288 132.993 406.956 134.228 409.749 134.228C413.446 134.228 419.319 132.828 427.37 130.028C435.748 127.228 442.854 125.828 448.687 125.828C458.462 125.828 467.211 128.504 474.932 133.858C479.204 136.823 483.476 140.94 487.747 146.211C481.258 151.729 476.575 156.589 473.7 160.789C468.361 168.531 465.691 177.055 465.691 186.361C465.691 196.574 468.525 205.757 474.193 213.91C479.861 222.064 486.351 227.252 493.662 229.476ZM447.331 84.566C447.331 89.5899 446.14 95.1903 443.758 101.367C441.293 107.544 437.474 113.227 432.298 118.415C427.862 122.863 423.426 125.828 418.991 127.31C415.951 128.216 411.68 128.916 406.176 129.41C406.422 117.139 409.626 106.556 415.787 97.661C421.866 88.8487 432.134 82.7541 446.592 79.3774C446.674 79.6245 446.777 80.0775 446.9 80.7364C447.023 81.3952 447.126 81.8482 447.208 82.0953C447.208 82.4247 447.228 82.8365 447.27 83.3307C447.311 83.8248 447.331 84.2366 447.331 84.566Z" fill="#ffffff" id="path-2"/>
<path d="M374.039 220.755V174.931H400.471V180.499H379.991V220.755H374.039ZM377.495 200.787V195.219H398.551V200.787H377.495ZM409.31 220.755V174.931H415.07L422.91 192.403L425.63 199.475H425.822L428.542 192.403L436.382 174.931H442.142V220.755H436.51V196.595L437.15 184.691H436.958L427.806 206.067H423.646L414.494 184.691H414.302L414.942 196.595V220.755H409.31Z" fill="#ffffff" class="rainbow-active" id="path-3" data-rainbow="true" stroke="none" stroke-width="1"/>
<rect x="351.19" y="211.091" width="43.4201" height="6.10595" transform="rotate(-41.1845 351.19 211.091)" fill="white" id="rect-4"/>
<rect width="51.824" height="5.75443" transform="matrix(0.578419 0.81574 0.81574 -0.578419 420.39 179.044)" fill="white" id="rect-5"/>
<rect width="51.824" height="5.75443" transform="matrix(0.578419 0.81574 0.81574 -0.578419 397.323 186.507)" fill="white" id="rect-6"/>
</svg>