<svg xmlns="http://www.w3.org/2000/svg" width="100%" height="100%" viewBox="0 0 538 538" fill="none" style="max-width: 100%; max-height: 100%; pointer-events: auto;"><defs><style>
        @keyframes rainbow-live {
          0% { fill: #ff0000; }
          17% { fill: #ff00ff; }
          33% { fill: #0000ff; }
          50% { fill: #00ffff; }
          66% { fill: #00ff00; }
          83% { fill: #ffff00; }
          100% { fill: #ff0000; }
        }
        .rainbow-active {
          animation: rainbow-live 6s linear infinite !important;
        }
      </style></defs>
<path d="M396 338.241C391.278 353.415 383.831 368.59 373.66 383.764C358.041 407.557 342.482 419.454 326.983 419.454C321.05 419.454 312.575 417.511 301.556 413.627C291.143 409.742 282.002 407.8 274.131 407.8C266.745 407.8 258.149 409.803 248.341 413.809C238.533 417.936 230.542 420 224.367 420C205.962 420 187.74 404.279 169.698 372.838C151.899 341.154 143 310.624 143 281.246C143 253.569 149.841 230.868 163.523 213.144C177.084 195.663 194.278 186.923 215.104 186.923C223.822 186.923 234.538 188.744 247.251 192.386C259.844 196.028 268.198 197.849 272.315 197.849C277.764 197.849 286.421 195.785 298.287 191.657C310.637 187.53 321.111 185.466 329.708 185.466C344.117 185.466 357.012 189.412 368.393 197.302C374.69 201.672 380.986 207.742 387.282 215.511C377.717 223.645 370.815 230.807 366.577 236.998C358.707 248.409 354.772 260.974 354.772 274.691C354.772 289.744 358.949 303.279 367.304 315.297C375.658 327.316 385.224 334.963 396 338.241ZM327.71 124.648C327.71 132.053 325.954 140.308 322.443 149.412C318.81 158.517 313.18 166.893 305.552 174.541C299.014 181.096 292.475 185.466 285.937 187.651C281.457 188.987 275.161 190.019 267.048 190.747C267.411 172.659 272.134 157.06 281.215 143.95C290.175 130.96 305.31 121.977 326.62 117C326.741 117.364 326.893 118.032 327.074 119.003C327.256 119.974 327.407 120.642 327.528 121.006C327.528 121.492 327.559 122.099 327.619 122.827C327.68 123.555 327.71 124.162 327.71 124.648Z" fill="#ffffff" id="path-1"/>
<path d="M219.832 327V258.264H259.48V266.616H228.76V327H219.832ZM225.016 297.048V288.696H256.6V297.048H225.016ZM272.739 327V258.264H281.379L293.139 284.472L297.219 295.08H297.507L301.587 284.472L313.347 258.264H321.987V327H313.539V290.76L314.499 272.904H314.211L300.483 304.968H294.243L280.515 272.904H280.227L281.187 290.76V327H272.739Z" fill="#000000" class="rainbow-active" id="path-2" data-rainbow="true"/>
<rect x="186" y="311.143" width="64" height="9" transform="rotate(-41.1845 186 311.143)" fill="white" id="rect-3"/>
<rect width="76.3871" height="8.48187" transform="matrix(0.578419 0.81574 0.81574 -0.578419 288 263.906)" fill="#ffffff" id="rect-4"/>
<rect width="76.3871" height="8.48187" transform="matrix(0.578419 0.81574 0.81574 -0.578419 254 274.906)" fill="white" id="rect-5"/>
</svg>